<svg width="21" height="20" viewBox="0 0 21 20" fill="none" xmlns="http://www.w3.org/2000/svg">
<path d="M19.9017 13.613C19.7948 13.5456 19.6725 13.5062 19.5463 13.4987C19.4201 13.4912 19.294 13.5157 19.1798 13.5699C18.894 13.7051 18.5787 13.7658 18.2632 13.7464C17.9476 13.727 17.6421 13.6281 17.375 13.459C17.108 13.2899 16.888 13.0559 16.7355 12.779C16.5831 12.502 16.5032 12.191 16.5032 11.8749C16.5032 11.5588 16.5831 11.2478 16.7355 10.9708C16.888 10.6939 17.108 10.4599 17.375 10.2908C17.6421 10.1217 17.9476 10.0228 18.2632 10.0034C18.5787 9.98403 18.894 10.0447 19.1798 10.1799C19.2941 10.2342 19.4204 10.2586 19.5467 10.251C19.673 10.2433 19.7953 10.2038 19.9023 10.1362C20.0093 10.0685 20.0974 9.97489 20.1584 9.86402C20.2194 9.75315 20.2514 9.62864 20.2514 9.50208V5.4999C20.2514 5.10207 20.0933 4.72054 19.812 4.43923C19.5307 4.15793 19.1492 3.99989 18.7514 3.99989H15.3557C15.3697 3.87539 15.3766 3.75018 15.3764 3.62489C15.3757 3.16395 15.2809 2.708 15.0977 2.28499C14.9146 1.86198 14.647 1.48083 14.3114 1.1649C13.8466 0.728406 13.2677 0.43249 12.6418 0.311414C12.0158 0.190337 11.3683 0.249054 10.7743 0.480764C10.1803 0.712474 9.66412 1.1077 9.28547 1.62067C8.90683 2.13364 8.68123 2.74338 8.63481 3.37927C8.6204 3.58612 8.6248 3.79384 8.64794 3.99989H5.25137C4.85355 3.99989 4.47202 4.15793 4.19071 4.43923C3.90941 4.72054 3.75137 5.10207 3.75137 5.4999V8.52052C3.62686 8.50656 3.50166 8.49968 3.37637 8.4999C2.91543 8.50064 2.4595 8.59548 2.0365 8.77861C1.6135 8.96173 1.23234 9.22929 0.916373 9.56489C0.598137 9.90105 0.353093 10.2996 0.196729 10.7353C0.0403642 11.171 -0.0239213 11.6343 0.00793532 12.0961C0.0616803 12.9093 0.407194 13.6757 0.980939 14.2545C1.55468 14.8332 2.31808 15.1854 3.13075 15.2461C3.33758 15.261 3.54535 15.2566 3.75137 15.233V18.2499C3.75137 18.6477 3.90941 19.0293 4.19071 19.3106C4.47202 19.5919 4.85355 19.7499 5.25137 19.7499H18.7514C19.1492 19.7499 19.5307 19.5919 19.812 19.3106C20.0933 19.0293 20.2514 18.6477 20.2514 18.2499V14.2477C20.2514 14.121 20.2194 13.9963 20.1583 13.8853C20.0971 13.7743 20.0088 13.6807 19.9017 13.613ZM18.7514 18.2499H5.25137V14.2477C5.25141 14.1211 5.21943 13.9966 5.15839 13.8858C5.09736 13.7749 5.00926 13.6813 4.90231 13.6136C4.79535 13.546 4.67301 13.5065 4.54668 13.4988C4.42035 13.4912 4.29415 13.5156 4.17981 13.5699C3.89403 13.7051 3.57871 13.7658 3.26318 13.7464C2.94764 13.727 2.64213 13.6281 2.37505 13.459C2.10796 13.2899 1.88798 13.0559 1.73555 12.779C1.58312 12.502 1.50319 12.191 1.50319 11.8749C1.50319 11.5588 1.58312 11.2478 1.73555 10.9708C1.88798 10.6939 2.10796 10.4599 2.37505 10.2908C2.64213 10.1217 2.94764 10.0228 3.26318 10.0034C3.57871 9.98403 3.89403 10.0447 4.17981 10.1799C4.29415 10.2342 4.42035 10.2586 4.54668 10.251C4.67301 10.2433 4.79535 10.2038 4.90231 10.1362C5.00926 10.0685 5.09736 9.97489 5.15839 9.86402C5.21943 9.75315 5.25141 9.62864 5.25137 9.50208V5.4999H9.62856C9.75512 5.49994 9.87963 5.46795 9.9905 5.40692C10.1014 5.34588 10.195 5.25779 10.2626 5.15083C10.3303 5.04387 10.3698 4.92153 10.3774 4.7952C10.3851 4.66888 10.3606 4.54267 10.3064 4.42833C10.1712 4.14255 10.1105 3.82723 10.1299 3.5117C10.1493 3.19616 10.2482 2.89065 10.4173 2.62357C10.5864 2.35649 10.8203 2.1365 11.0973 1.98407C11.3742 1.83164 11.6852 1.75171 12.0014 1.75171C12.3175 1.75171 12.6285 1.83164 12.9055 1.98407C13.1824 2.1365 13.4163 2.35649 13.5855 2.62357C13.7546 2.89065 13.8535 3.19616 13.8728 3.5117C13.8922 3.82723 13.8315 4.14255 13.6964 4.42833C13.6421 4.54267 13.6177 4.66888 13.6253 4.7952C13.633 4.92153 13.6724 5.04387 13.7401 5.15083C13.8078 5.25779 13.9014 5.34588 14.0122 5.40692C14.1231 5.46795 14.2476 5.49994 14.3742 5.4999H18.7514V8.52146C18.5454 8.49786 18.3376 8.49346 18.1307 8.50833C17.2579 8.57014 16.4431 8.96858 15.8583 9.61959C15.2736 10.2706 14.9645 11.1233 14.9964 11.9978C15.0282 12.8723 15.3985 13.7002 16.0291 14.307C16.6597 14.9137 17.5013 15.2518 18.3764 15.2499C18.5017 15.2501 18.6269 15.2432 18.7514 15.2293V18.2499Z" fill="black"/>
</svg>
