<svg width="14" height="14" viewBox="0 0 14 14" fill="none" xmlns="http://www.w3.org/2000/svg">
<path d="M6.53333 0.466674C5.45892 0.466674 4.40109 0.731647 3.45354 1.23812C2.50599 1.7446 1.69798 2.47694 1.10106 3.37028C0.504152 4.26362 0.13677 5.29039 0.0314588 6.35963C-0.0738521 7.42887 0.0861593 8.50758 0.497319 9.50021C0.908479 10.4928 1.5581 11.3687 2.38863 12.0503C3.21916 12.7319 4.20497 13.1982 5.25874 13.4078C6.31251 13.6174 7.40171 13.5639 8.42986 13.252C9.45801 12.9401 10.3934 12.3795 11.1531 11.6198L6.53333 7.00001L6.53333 0.466674Z" fill="currentColor"/>
<path d="M7.46667 -9.53674e-07C8.75884 -1.01016e-06 10.022 0.383172 11.0964 1.10106C12.1708 1.81896 13.0082 2.83932 13.5027 4.03313C13.9972 5.22694 14.1266 6.54058 13.8745 7.80792C13.6224 9.07526 13.0001 10.2394 12.0864 11.1531L7.46667 6.53333L7.46667 -9.53674e-07Z" fill="currentColor"/>
</svg>
