<svg width="17" height="20" viewBox="0 0 17 20" fill="none" xmlns="http://www.w3.org/2000/svg">
<path d="M16.2806 4.21938L12.5306 0.469375C12.4609 0.399749 12.3782 0.344539 12.2871 0.306898C12.1961 0.269257 12.0985 0.249923 12 0.25H4.5C4.10218 0.25 3.72064 0.408035 3.43934 0.68934C3.15804 0.970645 3 1.35218 3 1.75V3.25H1.5C1.10218 3.25 0.720644 3.40804 0.43934 3.68934C0.158035 3.97064 0 4.35218 0 4.75V18.25C0 18.6478 0.158035 19.0294 0.43934 19.3107C0.720644 19.592 1.10218 19.75 1.5 19.75H12C12.3978 19.75 12.7794 19.592 13.0607 19.3107C13.342 19.0294 13.5 18.6478 13.5 18.25V16.75H15C15.3978 16.75 15.7794 16.592 16.0607 16.3107C16.342 16.0294 16.5 15.6478 16.5 15.25V4.75C16.5001 4.65148 16.4807 4.55391 16.4431 4.46286C16.4055 4.37182 16.3503 4.28908 16.2806 4.21938ZM12 18.25H1.5V4.75H8.68969L12 8.06031V15.985C12 15.9906 12 15.9953 12 16C12 16.0047 12 16.0094 12 16.015V18.25ZM15 15.25H13.5V7.75C13.5001 7.65148 13.4807 7.55391 13.4431 7.46286C13.4055 7.37182 13.3503 7.28908 13.2806 7.21937L9.53063 3.46938C9.46092 3.39975 9.37818 3.34454 9.28714 3.3069C9.19609 3.26926 9.09852 3.24992 9 3.25H4.5V1.75H11.6897L15 5.06031V15.25ZM9.75 12.25C9.75 12.4489 9.67098 12.6397 9.53033 12.7803C9.38968 12.921 9.19891 13 9 13H4.5C4.30109 13 4.11032 12.921 3.96967 12.7803C3.82902 12.6397 3.75 12.4489 3.75 12.25C3.75 12.0511 3.82902 11.8603 3.96967 11.7197C4.11032 11.579 4.30109 11.5 4.5 11.5H9C9.19891 11.5 9.38968 11.579 9.53033 11.7197C9.67098 11.8603 9.75 12.0511 9.75 12.25ZM9.75 15.25C9.75 15.4489 9.67098 15.6397 9.53033 15.7803C9.38968 15.921 9.19891 16 9 16H4.5C4.30109 16 4.11032 15.921 3.96967 15.7803C3.82902 15.6397 3.75 15.4489 3.75 15.25C3.75 15.0511 3.82902 14.8603 3.96967 14.7197C4.11032 14.579 4.30109 14.5 4.5 14.5H9C9.19891 14.5 9.38968 14.579 9.53033 14.7197C9.67098 14.8603 9.75 15.0511 9.75 15.25Z" fill="black"/>
</svg>
