<svg width="21" height="20" viewBox="0 0 21 20" fill="none" xmlns="http://www.w3.org/2000/svg">
<path d="M10.5009 5.49998C9.61089 5.49998 8.74087 5.7639 8.00084 6.25837C7.26082 6.75284 6.68405 7.45564 6.34345 8.27791C6.00286 9.10017 5.91374 10.005 6.08738 10.8779C6.26101 11.7508 6.68959 12.5526 7.31893 13.182C7.94827 13.8113 8.75009 14.2399 9.623 14.4135C10.4959 14.5871 11.4007 14.498 12.223 14.1574C13.0453 13.8168 13.7481 13.2401 14.2425 12.5C14.737 11.76 15.0009 10.89 15.0009 9.99998C14.9997 8.80689 14.5252 7.66302 13.6815 6.81937C12.8379 5.97573 11.694 5.50122 10.5009 5.49998ZM10.5009 13C9.90757 13 9.32755 12.824 8.8342 12.4944C8.34085 12.1647 7.95633 11.6962 7.72927 11.148C7.50221 10.5999 7.4428 9.99665 7.55855 9.41471C7.67431 8.83277 7.96003 8.29822 8.37959 7.87866C8.79915 7.4591 9.3337 7.17338 9.91564 7.05763C10.4976 6.94187 11.1008 7.00128 11.649 7.22834C12.1971 7.45541 12.6657 7.83992 12.9953 8.33327C13.325 8.82662 13.5009 9.40664 13.5009 9.99998C13.5009 10.7956 13.1848 11.5587 12.6222 12.1213C12.0596 12.6839 11.2966 13 10.5009 13ZM20.8078 8.05092C20.7869 7.94531 20.7435 7.84543 20.6806 7.75807C20.6177 7.67072 20.5367 7.59793 20.4431 7.54467L17.6465 5.95092L17.6353 2.79904C17.6349 2.6905 17.611 2.58331 17.5652 2.4849C17.5194 2.38649 17.4528 2.29919 17.37 2.22904C16.3555 1.37095 15.1873 0.713357 13.9275 0.291232C13.8283 0.257651 13.7231 0.245223 13.6188 0.25475C13.5145 0.264276 13.4133 0.295546 13.3218 0.346545L10.5009 1.92342L7.67716 0.343732C7.58562 0.292446 7.48433 0.260941 7.37985 0.251251C7.27536 0.241562 7.17001 0.253905 7.0706 0.287482C5.81167 0.712692 4.64481 1.37279 3.63185 2.23279C3.54913 2.30284 3.48258 2.38999 3.43678 2.48823C3.39097 2.58647 3.36701 2.69347 3.36654 2.80186L3.35247 5.95654L0.555911 7.55029C0.46235 7.60356 0.381353 7.67634 0.318425 7.7637C0.255497 7.85105 0.212114 7.95093 0.191223 8.05654C-0.0647177 9.34268 -0.0647177 10.6667 0.191223 11.9528C0.212114 12.0584 0.255497 12.1583 0.318425 12.2456C0.381353 12.333 0.46235 12.4058 0.555911 12.459L3.35247 14.0528L3.36372 17.2047C3.36406 17.3132 3.38796 17.4204 3.43377 17.5188C3.47957 17.6172 3.5462 17.7045 3.62904 17.7747C4.64348 18.6328 5.81168 19.2904 7.07154 19.7125C7.17075 19.7461 7.2759 19.7585 7.38021 19.749C7.48451 19.7394 7.58567 19.7082 7.67716 19.6572L10.5009 18.0765L13.3247 19.6562C13.4364 19.7185 13.5624 19.7508 13.6903 19.75C13.7722 19.75 13.8536 19.7367 13.9312 19.7106C15.19 19.286 16.3569 18.6265 17.37 17.7672C17.4527 17.6971 17.5192 17.61 17.565 17.5117C17.6108 17.4135 17.6348 17.3065 17.6353 17.1981L17.6493 14.0434L20.4459 12.4497C20.5395 12.3964 20.6205 12.3236 20.6834 12.2363C20.7463 12.1489 20.7897 12.049 20.8106 11.9434C21.0651 10.6583 21.0642 9.33566 20.8078 8.05092ZM19.4015 11.3237L16.7231 12.8472C16.6057 12.9139 16.5086 13.0111 16.4418 13.1284C16.3875 13.2222 16.3303 13.3215 16.2722 13.4153C16.1978 13.5335 16.1581 13.6703 16.1578 13.81L16.1437 16.8334C15.4238 17.3988 14.6217 17.8509 13.7653 18.174L11.0634 16.6684C10.9512 16.6064 10.825 16.5741 10.6968 16.5747H10.679C10.5656 16.5747 10.4512 16.5747 10.3378 16.5747C10.2036 16.5713 10.071 16.6037 9.95341 16.6684L7.24966 18.1778C6.39139 17.8571 5.58712 17.4072 4.86466 16.8437L4.85435 13.825C4.85389 13.685 4.81427 13.548 4.73997 13.4294C4.68185 13.3356 4.62466 13.2419 4.57122 13.1425C4.50496 13.0233 4.40781 12.9242 4.28997 12.8556L1.60872 11.3284C1.46997 10.4507 1.46997 9.55672 1.60872 8.67904L4.28247 7.15279C4.39983 7.08607 4.49699 6.9889 4.56372 6.87154C4.6181 6.77779 4.67529 6.67842 4.73341 6.58467C4.80781 6.46644 4.84745 6.32967 4.84779 6.18998L4.86185 3.16654C5.58178 2.60118 6.38384 2.14909 7.24029 1.82592L9.93841 3.33154C10.0558 3.39663 10.1886 3.42901 10.3228 3.42529C10.4362 3.42529 10.5506 3.42529 10.664 3.42529C10.7982 3.42865 10.9309 3.39629 11.0484 3.33154L13.7522 1.82217C14.6104 2.14286 15.4147 2.59274 16.1372 3.15623L16.1475 6.17498C16.1479 6.31495 16.1876 6.45199 16.2618 6.57061C16.32 6.66436 16.3772 6.75811 16.4306 6.85748C16.4969 6.97665 16.594 7.07575 16.7118 7.14436L19.3931 8.67155C19.5337 9.54989 19.5353 10.4449 19.3978 11.3237H19.4015Z" fill="black"/>
</svg>
