<svg width="14" height="14" viewBox="0 0 14 14" fill="none" xmlns="http://www.w3.org/2000/svg">
<path d="M13.8713 5.60091C13.8574 5.5251 13.8285 5.4534 13.7866 5.3907C13.7446 5.328 13.6906 5.27575 13.6282 5.23752L11.764 4.09352L11.7565 1.83111C11.7563 1.75319 11.7403 1.67626 11.7098 1.60562C11.6793 1.53498 11.6349 1.47231 11.5796 1.42196C10.9034 0.80602 10.1246 0.333999 9.2848 0.0309984C9.21867 0.00689362 9.14857 -0.00202691 9.07904 0.00481133C9.0095 0.0116496 8.94207 0.0340949 8.88108 0.0707017L7.00059 1.20258L5.11823 0.0686829C5.0572 0.0318699 4.98968 0.00925507 4.92003 0.00230011C4.85038 -0.00465485 4.78015 0.00420486 4.71388 0.0283066C3.87466 0.333523 3.0968 0.807343 2.42155 1.42465C2.36641 1.47493 2.32204 1.53749 2.29151 1.608C2.26098 1.67852 2.245 1.75532 2.24468 1.83313L2.23531 4.09756L0.371069 5.24156C0.308699 5.27979 0.254705 5.33203 0.212756 5.39474C0.170807 5.45744 0.141887 5.52913 0.127961 5.60494C-0.0426538 6.52814 -0.0426538 7.47848 0.127961 8.40167C0.141887 8.47748 0.170807 8.54918 0.212756 8.61188C0.254705 8.67458 0.308699 8.72683 0.371069 8.76506L2.23531 9.90905L2.24281 12.1715C2.24304 12.2494 2.25897 12.3263 2.2895 12.397C2.32004 12.4676 2.36445 12.5303 2.41967 12.5806C3.09592 13.1966 3.87466 13.6686 4.71451 13.9716C4.78064 13.9957 4.85074 14.0046 4.92027 13.9978C4.98981 13.9909 5.05724 13.9685 5.11823 13.9319L7.00059 12.7973L8.88296 13.9312C8.95745 13.9759 9.04141 13.9991 9.12669 13.9985C9.18129 13.9985 9.23553 13.9889 9.2873 13.9702C10.1264 13.6654 10.9043 13.1921 11.5796 12.5752C11.6348 12.525 11.6791 12.4624 11.7097 12.3919C11.7402 12.3214 11.7562 12.2446 11.7565 12.1668L11.7659 9.90233L13.6301 8.75833C13.6925 8.7201 13.7465 8.66785 13.7884 8.60515C13.8304 8.54245 13.8593 8.47075 13.8732 8.39494C14.0429 7.47249 14.0423 6.52309 13.8713 5.60091Z" fill="currentColor"/>
<circle cx="7" cy="7" r="2" fill="white"/>
</svg>
