<svg width="8" height="8" viewBox="0 0 8 8" fill="none" xmlns="http://www.w3.org/2000/svg">
<g clip-path="url(#clip0_404_583)">
<path d="M5.89422 4.66679L4.56088 7.66679C4.29567 7.66679 4.04131 7.56143 3.85378 7.37389C3.66624 7.18636 3.56088 6.932 3.56088 6.66679V5.33345H1.67422C1.57758 5.33455 1.48186 5.31462 1.39369 5.27505C1.30552 5.23548 1.22701 5.17721 1.1636 5.10428C1.10018 5.03136 1.05338 4.94551 1.02644 4.8527C0.999491 4.75989 0.993047 4.66234 1.00755 4.56679L1.46755 1.56679C1.49166 1.40782 1.5724 1.26292 1.69491 1.15879C1.81742 1.05465 1.97344 0.998303 2.13422 1.00012H5.89422M5.89422 4.66679V1.00012M5.89422 4.66679H6.78422C6.97287 4.67012 7.15618 4.60408 7.29935 4.48118C7.44253 4.35829 7.53559 4.1871 7.56088 4.00012V1.66679C7.53559 1.47981 7.44253 1.30862 7.29935 1.18573C7.15618 1.06283 6.97287 0.996784 6.78422 1.00012H5.89422" stroke="#848484" stroke-width="0.8" stroke-linecap="round" stroke-linejoin="round"/>
</g>
<defs>
<clipPath id="clip0_404_583">
<rect width="8" height="8" fill="white"/>
</clipPath>
</defs>
</svg>
