<svg width="8" height="8" viewBox="0 0 8 8" fill="none" xmlns="http://www.w3.org/2000/svg">
<g clip-path="url(#clip0_404_551)">
<path d="M4.66634 0.666656H1.99967C1.82286 0.666656 1.65329 0.736894 1.52827 0.861919C1.40325 0.986943 1.33301 1.15651 1.33301 1.33332V6.66666C1.33301 6.84347 1.40325 7.01304 1.52827 7.13806C1.65329 7.26309 1.82286 7.33332 1.99967 7.33332H5.99967C6.17649 7.33332 6.34605 7.26309 6.47108 7.13806C6.5961 7.01304 6.66634 6.84347 6.66634 6.66666V2.66666L4.66634 0.666656Z" stroke="#848484" stroke-width="0.8" stroke-linecap="round" stroke-linejoin="round"/>
<path d="M4.66699 0.666656V2.66666H6.66699" stroke="#848484" stroke-width="0.8" stroke-linecap="round" stroke-linejoin="round"/>
<path d="M5.33366 4.33334H2.66699" stroke="#848484" stroke-width="0.8" stroke-linecap="round" stroke-linejoin="round"/>
<path d="M5.33366 5.66666H2.66699" stroke="#848484" stroke-width="0.8" stroke-linecap="round" stroke-linejoin="round"/>
<path d="M3.33366 3H3.00033H2.66699" stroke="#848484" stroke-width="0.8" stroke-linecap="round" stroke-linejoin="round"/>
</g>
<defs>
<clipPath id="clip0_404_551">
<rect width="8" height="8" fill="white"/>
</clipPath>
</defs>
</svg>
