<svg width="8" height="8" viewBox="0 0 8 8" fill="none" xmlns="http://www.w3.org/2000/svg">
<g clip-path="url(#clip0_404_581)">
<path d="M2.33366 3.66666L3.66699 0.666656C3.93221 0.666656 4.18656 0.772013 4.3741 0.95955C4.56164 1.14709 4.66699 1.40144 4.66699 1.66666V2.99999H6.55366C6.65029 2.9989 6.74601 3.01882 6.83418 3.0584C6.92235 3.09797 7.00086 3.15623 7.06428 3.22916C7.12769 3.30209 7.17449 3.38793 7.20144 3.48074C7.22838 3.57355 7.23483 3.67111 7.22033 3.76666L6.76033 6.76666C6.73622 6.92563 6.65547 7.07053 6.53296 7.17466C6.41045 7.27879 6.25444 7.33514 6.09366 7.33332H2.33366M2.33366 3.66666V7.33332M2.33366 3.66666H1.33366C1.15685 3.66666 0.987279 3.73689 0.862254 3.86192C0.73723 3.98694 0.666992 4.15651 0.666992 4.33332V6.66666C0.666992 6.84347 0.73723 7.01304 0.862254 7.13806C0.987279 7.26309 1.15685 7.33332 1.33366 7.33332H2.33366" stroke="#848484" stroke-width="0.8" stroke-linecap="round" stroke-linejoin="round"/>
</g>
<defs>
<clipPath id="clip0_404_581">
<rect width="8" height="8" fill="white"/>
</clipPath>
</defs>
</svg>
