<svg width="8" height="8" viewBox="0 0 8 8" fill="none" xmlns="http://www.w3.org/2000/svg">
<g clip-path="url(#clip0_404_601)">
<path d="M7.33366 4H5.33366L4.66699 5H3.33366L2.66699 4H0.666992" stroke="#848484" stroke-width="0.8" stroke-linecap="round" stroke-linejoin="round"/>
<path d="M1.81699 1.70334L0.666992 4.00001V6.00001C0.666992 6.17682 0.73723 6.34639 0.862254 6.47141C0.987279 6.59644 1.15685 6.66668 1.33366 6.66668H6.66699C6.8438 6.66668 7.01337 6.59644 7.1384 6.47141C7.26342 6.34639 7.33366 6.17682 7.33366 6.00001V4.00001L6.18366 1.70334C6.12847 1.59227 6.04338 1.4988 5.93798 1.43344C5.83257 1.36807 5.71102 1.33341 5.58699 1.33334H2.41366C2.28963 1.33341 2.16808 1.36807 2.06267 1.43344C1.95727 1.4988 1.87218 1.59227 1.81699 1.70334Z" stroke="#848484" stroke-width="0.8" stroke-linecap="round" stroke-linejoin="round"/>
</g>
<defs>
<clipPath id="clip0_404_601">
<rect width="8" height="8" fill="white"/>
</clipPath>
</defs>
</svg>
