<svg width="12" height="14" viewBox="0 0 12 14" fill="none" xmlns="http://www.w3.org/2000/svg">
<path d="M9.5 2.76065H0.5C0.367392 2.76065 0.240215 2.81868 0.146447 2.92198C0.0526785 3.02528 0 3.16538 0 3.31147V13.2262C0 13.3723 0.0526785 13.5124 0.146447 13.6157C0.240215 13.719 0.367392 13.777 0.5 13.777H9.5C9.63261 13.777 9.75979 13.719 9.85355 13.6157C9.94732 13.5124 10 13.3723 10 13.2262V3.31147C10 3.16538 9.94732 3.02528 9.85355 2.92198C9.75979 2.81868 9.63261 2.76065 9.5 2.76065ZM9 12.6754H1V3.86229H9V12.6754ZM12 1.10819V11.0229C12 11.169 11.9473 11.3091 11.8536 11.4124C11.7598 11.5157 11.6326 11.5738 11.5 11.5738C11.3674 11.5738 11.2402 11.5157 11.1464 11.4124C11.0527 11.3091 11 11.169 11 11.0229V1.65901H2.5C2.36739 1.65901 2.24021 1.60098 2.14645 1.49768C2.05268 1.39438 2 1.25428 2 1.10819C2 0.962106 2.05268 0.822003 2.14645 0.718704C2.24021 0.615406 2.36739 0.557373 2.5 0.557373H11.5C11.6326 0.557373 11.7598 0.615406 11.8536 0.718704C11.9473 0.822003 12 0.962106 12 1.10819Z" fill="currentColor"/>
</svg>
