<svg width="10" height="10" viewBox="0 0 10 10" fill="none" xmlns="http://www.w3.org/2000/svg">
<g clip-path="url(#clip0_404_610)">
<path d="M4.56386 8.81106L-1.83362 2.02225C-1.94042 1.90898 -2 1.75848 -2 1.60198C-2 1.44549 -1.94042 1.29499 -1.83362 1.18172L-1.82639 1.17441C-1.77462 1.11931 -1.7123 1.07543 -1.64323 1.04545C-1.57415 1.01546 -1.49976 1 -1.42459 1C-1.34942 1 -1.27504 1.01546 -1.20596 1.04545C-1.13689 1.07543 -1.07457 1.11931 -1.02279 1.17441L5.0012 7.56732L11.0228 1.17441C11.0746 1.11931 11.1369 1.07543 11.206 1.04545C11.275 1.01546 11.3494 1 11.4246 1C11.4998 1 11.5741 1.01546 11.6432 1.04545C11.7123 1.07543 11.7746 1.11931 11.8264 1.17441L11.8336 1.18172C11.9404 1.29499 12 1.44549 12 1.60198C12 1.75848 11.9404 1.90898 11.8336 2.02225L5.43614 8.81106C5.37988 8.87077 5.31221 8.9183 5.23724 8.95078C5.16227 8.98325 5.08156 9 5 9C4.91844 9 4.83773 8.98325 4.76276 8.95078C4.68779 8.9183 4.62012 8.87077 4.56386 8.81106Z" fill="#848484"/>
</g>
<defs>
<clipPath id="clip0_404_610">
<rect width="10" height="10" fill="white" transform="matrix(1 0 0 -1 0 10)"/>
</clipPath>
</defs>
</svg>
