<svg width="10" height="10" viewBox="0 0 10 10" fill="none" xmlns="http://www.w3.org/2000/svg">
<path d="M9.16667 0.769231H7.91667V0.384615C7.91667 0.282609 7.87277 0.184781 7.79463 0.112651C7.71649 0.0405218 7.61051 0 7.5 0C7.38949 0 7.28351 0.0405218 7.20537 0.112651C7.12723 0.184781 7.08333 0.282609 7.08333 0.384615V0.769231H2.91667V0.384615C2.91667 0.282609 2.87277 0.184781 2.79463 0.112651C2.71649 0.0405218 2.61051 0 2.5 0C2.38949 0 2.28351 0.0405218 2.20537 0.112651C2.12723 0.184781 2.08333 0.282609 2.08333 0.384615V0.769231H0.833333C0.61232 0.769231 0.400358 0.850274 0.244078 0.994533C0.0877973 1.13879 0 1.33445 0 1.53846V9.23077C0 9.43478 0.0877973 9.63044 0.244078 9.7747C0.400358 9.91896 0.61232 10 0.833333 10H9.16667C9.38768 10 9.59964 9.91896 9.75592 9.7747C9.9122 9.63044 10 9.43478 10 9.23077V1.53846C10 1.33445 9.9122 1.13879 9.75592 0.994533C9.59964 0.850274 9.38768 0.769231 9.16667 0.769231ZM2.08333 1.53846V1.92308C2.08333 2.02508 2.12723 2.12291 2.20537 2.19504C2.28351 2.26717 2.38949 2.30769 2.5 2.30769C2.61051 2.30769 2.71649 2.26717 2.79463 2.19504C2.87277 2.12291 2.91667 2.02508 2.91667 1.92308V1.53846H7.08333V1.92308C7.08333 2.02508 7.12723 2.12291 7.20537 2.19504C7.28351 2.26717 7.38949 2.30769 7.5 2.30769C7.61051 2.30769 7.71649 2.26717 7.79463 2.19504C7.87277 2.12291 7.91667 2.02508 7.91667 1.92308V1.53846H9.16667V3.07692H0.833333V1.53846H2.08333ZM9.16667 9.23077H0.833333V3.84615H9.16667V9.23077ZM5.625 5.57692C5.625 5.69103 5.58834 5.80257 5.51967 5.89744C5.45099 5.99232 5.35338 6.06626 5.23918 6.10993C5.12497 6.1536 4.99931 6.16502 4.87807 6.14276C4.75683 6.1205 4.64547 6.06555 4.55806 5.98487C4.47065 5.90418 4.41112 5.80139 4.38701 5.68947C4.36289 5.57756 4.37527 5.46156 4.42258 5.35614C4.46988 5.25073 4.54999 5.16062 4.65277 5.09723C4.75555 5.03384 4.87639 5 5 5C5.16576 5 5.32473 5.06078 5.44194 5.16898C5.55915 5.27717 5.625 5.42391 5.625 5.57692ZM7.91667 5.57692C7.91667 5.69103 7.88001 5.80257 7.81134 5.89744C7.74266 5.99232 7.64505 6.06626 7.53084 6.10993C7.41664 6.1536 7.29097 6.16502 7.16974 6.14276C7.0485 6.1205 6.93713 6.06555 6.84973 5.98487C6.76232 5.90418 6.70279 5.80139 6.67868 5.68947C6.65456 5.57756 6.66694 5.46156 6.71424 5.35614C6.76155 5.25073 6.84165 5.16062 6.94444 5.09723C7.04722 5.03384 7.16805 5 7.29167 5C7.45743 5 7.6164 5.06078 7.73361 5.16898C7.85082 5.27717 7.91667 5.42391 7.91667 5.57692ZM3.33333 7.5C3.33333 7.6141 3.29668 7.72565 3.228 7.82052C3.15933 7.91539 3.06171 7.98934 2.94751 8.03301C2.83331 8.07667 2.70764 8.0881 2.5864 8.06584C2.46516 8.04358 2.3538 7.98863 2.26639 7.90795C2.17898 7.82726 2.11946 7.72446 2.09534 7.61255C2.07123 7.50064 2.0836 7.38464 2.13091 7.27922C2.17821 7.1738 2.25832 7.0837 2.3611 7.02031C2.46388 6.95691 2.58472 6.92308 2.70833 6.92308C2.87409 6.92308 3.03307 6.98386 3.15028 7.09205C3.26749 7.20025 3.33333 7.34699 3.33333 7.5ZM5.625 7.5C5.625 7.6141 5.58834 7.72565 5.51967 7.82052C5.45099 7.91539 5.35338 7.98934 5.23918 8.03301C5.12497 8.07667 4.99931 8.0881 4.87807 8.06584C4.75683 8.04358 4.64547 7.98863 4.55806 7.90795C4.47065 7.82726 4.41112 7.72446 4.38701 7.61255C4.36289 7.50064 4.37527 7.38464 4.42258 7.27922C4.46988 7.1738 4.54999 7.0837 4.65277 7.02031C4.75555 6.95691 4.87639 6.92308 5 6.92308C5.16576 6.92308 5.32473 6.98386 5.44194 7.09205C5.55915 7.20025 5.625 7.34699 5.625 7.5ZM7.91667 7.5C7.91667 7.6141 7.88001 7.72565 7.81134 7.82052C7.74266 7.91539 7.64505 7.98934 7.53084 8.03301C7.41664 8.07667 7.29097 8.0881 7.16974 8.06584C7.0485 8.04358 6.93713 7.98863 6.84973 7.90795C6.76232 7.82726 6.70279 7.72446 6.67868 7.61255C6.65456 7.50064 6.66694 7.38464 6.71424 7.27922C6.76155 7.1738 6.84165 7.0837 6.94444 7.02031C7.04722 6.95691 7.16805 6.92308 7.29167 6.92308C7.45743 6.92308 7.6164 6.98386 7.73361 7.09205C7.85082 7.20025 7.91667 7.34699 7.91667 7.5Z" fill="#848484"/>
</svg>
