<svg width="17" height="18" viewBox="0 0 17 18" fill="none" xmlns="http://www.w3.org/2000/svg">
<rect x="7" y="4" width="3" height="10" fill="white"/>
<path d="M8.335 9.8335C8.57116 9.8335 8.76925 9.75349 8.92929 9.59345C9.08876 9.43398 9.1685 9.23616 9.1685 9V5.64516C9.1685 5.40901 9.08876 5.21452 8.92929 5.06171C8.76925 4.90891 8.57116 4.8325 8.335 4.8325C8.09884 4.8325 7.90102 4.91224 7.74155 5.07172C7.58152 5.23175 7.5015 5.42984 7.5015 5.666V9.02084C7.5015 9.257 7.58152 9.45148 7.74155 9.60429C7.90102 9.7571 8.09884 9.8335 8.335 9.8335ZM8.335 13.1675C8.57116 13.1675 8.76925 13.0875 8.92929 12.9275C9.08876 12.768 9.1685 12.5702 9.1685 12.334C9.1685 12.0978 9.08876 11.8997 8.92929 11.7397C8.76925 11.5802 8.57116 11.5005 8.335 11.5005C8.09884 11.5005 7.90102 11.5802 7.74155 11.7397C7.58152 11.8997 7.5015 12.0978 7.5015 12.334C7.5015 12.5702 7.58152 12.768 7.74155 12.9275C7.90102 13.0875 8.09884 13.1675 8.335 13.1675ZM8.335 17.335C7.18199 17.335 6.09844 17.1161 5.08435 16.6782C4.07026 16.2409 3.18814 15.6472 2.43799 14.897C1.68784 14.1469 1.09411 13.2647 0.656798 12.2507C0.218933 11.2366 0 10.153 0 9C0 7.84699 0.218933 6.76344 0.656798 5.74935C1.09411 4.73526 1.68784 3.85314 2.43799 3.10299C3.18814 2.35284 4.07026 1.75883 5.08435 1.32097C6.09844 0.883656 7.18199 0.665001 8.335 0.665001C9.48801 0.665001 10.5716 0.883656 11.5856 1.32097C12.5997 1.75883 13.4819 2.35284 14.232 3.10299C14.9822 3.85314 15.5759 4.73526 16.0132 5.74935C16.4511 6.76344 16.67 7.84699 16.67 9C16.67 10.153 16.4511 11.2366 16.0132 12.2507C15.5759 13.2647 14.9822 14.1469 14.232 14.897C13.4819 15.6472 12.5997 16.2409 11.5856 16.6782C10.5716 17.1161 9.48801 17.335 8.335 17.335Z" fill="#FF3317"/>
</svg>
